{
  "accessors": [
    {
      "bufferView": 2,
      "componentType": 5126,
      "count": 169,
      "max": [
        0.40038299560546875,
        0.0831649973988533,
        0.06013699993491173
      ],
      "min": [
        -0.36628299951553345,
        0.08291400223970413,
        -0.09979599714279175
      ],
      "type": "VEC3"
    },
    {
      "bufferView": 2,
      "byteOffset": 2028,
      "componentType": 5126,
      "count": 169,
      "max": [
        0.5589335560798645,
        -0.7305341362953186,
        0.6024395823478699
      ],
      "min": [
        -0.5596034526824951,
        -1.0,
        -0.6027268171310425
      ],
      "type": "VEC3"
    },
    {
      "bufferView": 1,
      "componentType": 5126,
      "count": 169,
      "max": [
        0.9765660166740417,
        0.9345409870147705
      ],
      "min": [
        0.02394700050354004,
        0.6562100052833557
      ],
      "type": "VEC2"
    },
    {
      "bufferView": 0,
      "componentType": 5125,
      "count": 864,
      "type": "SCALAR"
    },
    {
      "bufferView": 2,
      "byteOffset": 4056,
      "componentType": 5126,
      "count": 8290,
      "max": [
        0.4175510108470917,
        0.0999630019068718,
        0.25308600068092346
      ],
      "min": [
        -0.38350000977516174,
        -0.0999630019068718,
        -0.29406800866127014
      ],
      "type": "VEC3"
    },
    {
      "bufferView": 2,
      "byteOffset": 103536,
      "componentType": 5126,
      "count": 8290,
      "max": [
        1.0,
        1.0,
        1.0
      ],
      "min": [
        -1.0,
        -1.0,
        -1.0
      ],
      "type": "VEC3"
    },
    {
      "bufferView": 1,
      "byteOffset": 1352,
      "componentType": 5126,
      "count": 8290,
      "max": [
        0.8750010132789612,
        1.0
      ],
      "min": [
        0.00010800000018207356,
        -0.0
      ],
      "type": "VEC2"
    },
    {
      "bufferView": 0,
      "byteOffset": 3456,
      "componentType": 5125,
      "count": 45792,
      "type": "SCALAR"
    }
  ],
  "asset": {
    "extras": {
      "author": "Render at Night (https://sketchfab.com/Render_at_Night)",
      "license": "CC-BY-4.0 (http://creativecommons.org/licenses/by/4.0/)",
      "source": "https://sketchfab.com/3d-models/floating-wall-shelf-unit-31b378d7ebd0494bb90109d7dd38b3f8",
      "title": "Floating Wall Shelf Unit"
    },
    "generator": "Sketchfab-12.68.0",
    "version": "2.0"
  },
  "bufferViews": [
    {
      "buffer": 0,
      "byteLength": 186624,
      "name": "floatBufferViews",
      "target": 34963
    },
    {
      "buffer": 0,
      "byteLength": 67672,
      "byteOffset": 186624,
      "byteStride": 8,
      "name": "floatBufferViews",
      "target": 34962
    },
    {
      "buffer": 0,
      "byteLength": 203016,
      "byteOffset": 254296,
      "byteStride": 12,
      "name": "floatBufferViews",
      "target": 34962
    }
  ],
  "buffers": [
    {
      "byteLength": 457312,
      "uri": "scene.bin"
    }
  ],
  "images": [
    {
      "uri": "textures/Wood_Veneer_baseColor.png"
    }
  ],
  "materials": [
    {
      "doubleSided": true,
      "name": "White_Veneer",
      "pbrMetallicRoughness": {
        "baseColorFactor": [
          0.831051,
          0.831051,
          0.78497,
          1.0
        ],
        "metallicFactor": 0.0,
        "roughnessFactor": 0.8870949567823387
      }
    },
    {
      "doubleSided": true,
      "name": "Wood_Veneer",
      "pbrMetallicRoughness": {
        "baseColorTexture": {
          "index": 0
        },
        "metallicFactor": 0.0,
        "roughnessFactor": 0.8870949567823387
      }
    }
  ],
  "meshes": [
    {
      "name": "Object_0",
      "primitives": [
        {
          "attributes": {
            "NORMAL": 1,
            "POSITION": 0,
            "TEXCOORD_0": 2
          },
          "indices": 3,
          "material": 1,
          "mode": 4
        }
      ]
    },
    {
      "name": "Object_1",
      "primitives": [
        {
          "attributes": {
            "NORMAL": 5,
            "POSITION": 4,
            "TEXCOORD_0": 6
          },
          "indices": 7,
          "material": 0,
          "mode": 4
        }
      ]
    }
  ],
  "nodes": [
    {
      "children": [
        1
      ],
      "matrix": [
        1.0,
        0.0,
        0.0,
        0.0,
        0.0,
        2.220446049250313e-16,
        -1.0,
        0.0,
        0.0,
        1.0,
        2.220446049250313e-16,
        0.0,
        0.0,
        0.0,
        0.0,
        1.0
      ],
      "name": "Sketchfab_model"
    },
    {
      "children": [
        2,
        3
      ],
      "name": "Wall_Shelf_High_Poly.obj.cleaner.materialmerger.gles"
    },
    {
      "mesh": 0,
      "name": "Object_2"
    },
    {
      "mesh": 1,
      "name": "Object_3"
    }
  ],
  "samplers": [
    {
      "magFilter": 9729,
      "minFilter": 9987,
      "wrapS": 10497,
      "wrapT": 10497
    }
  ],
  "scene": 0,
  "scenes": [
    {
      "name": "Sketchfab_Scene",
      "nodes": [
        0
      ]
    }
  ],
  "textures": [
    {
      "sampler": 0,
      "source": 0
    }
  ]
}
